# xmcd
#
# Track frame offsets: 
#        150
#        12572
#        20795
#        31357
#        46737
#        69990
#        85670
#        99415
#        112675
#        127137
#        144700
#        161712
#        179310
#
# Disc length: 2597 seconds
#
# Revision: 0
# Processed by: cddbd v1.5.1PL0 Copyright (c) Steve Scherf et al.
# Submitted via: ExactAudioCopy v0.95a5
#
DISCID=a80a230d
DTITLE=Various Artist - Underground Oldies Christmas Album
DYEAR=2001
DGENRE=Christmas/Holiday
TTITLE0=C-Queens - Merry Christmas To You Baby
TTITLE1=Sunny and The Sunliners - I Want To Come Home For Christmas
TTITLE2=Augie Rios - Donde Esta Santa Claus
TTITLE3=Gene Chandler - I'll Be Home For Christmas
TTITLE4=The Escorts - Silent Night
TTITLE5=Sophia Maria - Who Would Imagine A King
TTITLE6=Barbara Lynn - Merry Christmas Baby
TTITLE7=M.C. Blvd - Spending Christmas With My Baby
TTITLE8=Carl Carlton - Santa Claus Is Comin' To Town
TTITLE9=The Delegation - The Christmas Song (Chestnuts Roasting On An 
TTITLE9=Open Fire)
TTITLE10=Ron Preyer and The Younghearts - What Do The Lonely Do At Chris
TTITLE10=tmas
TTITLE11=The Shields Featuring Frankie Ervin - It's Christmas Time
TTITLE12=Barbara Lewis - Frosty
EXTD=
EXTT0=
EXTT1=
EXTT2=
EXTT3=
EXTT4=
EXTT5=
EXTT6=
EXTT7=
EXTT8=
EXTT9=
EXTT10=
EXTT11=
EXTT12=
PLAYORDER=
